<svg width="26" height="19" viewBox="0 0 26 19" fill="none" xmlns="http://www.w3.org/2000/svg">
<path d="M20.2549 11.1546H1.67155C1.19933 11.1546 0.803494 10.9949 0.484049 10.6755C0.164605 10.356 0.00488281 9.9602 0.00488281 9.48798C0.00488281 9.01575 0.164605 8.61992 0.484049 8.30048C0.803494 7.98103 1.19933 7.82131 1.67155 7.82131H20.2549L15.5049 3.07131C15.1715 2.73798 15.0118 2.34909 15.0257 1.90464C15.0396 1.4602 15.1993 1.07131 15.5049 0.737975C15.8382 0.404642 16.2341 0.231031 16.6924 0.217142C17.1507 0.203253 17.5466 0.362975 17.8799 0.696309L25.5049 8.32131C25.6716 8.48798 25.7896 8.66853 25.8591 8.86298C25.9285 9.05742 25.9632 9.26575 25.9632 9.48798C25.9632 9.7102 25.9285 9.91853 25.8591 10.113C25.7896 10.3074 25.6716 10.488 25.5049 10.6546L17.8799 18.2796C17.5466 18.613 17.1507 18.7727 16.6924 18.7588C16.2341 18.7449 15.8382 18.5713 15.5049 18.238C15.1993 17.9046 15.0396 17.5158 15.0257 17.0713C15.0118 16.6269 15.1715 16.238 15.5049 15.9046L20.2549 11.1546Z" fill="black"/>
</svg>
