<?xml version="1.0" encoding="utf-8"?>
<!-- Generator: Adobe Illustrator 16.0.0, SVG Export Plug-In . SVG Version: 6.00 Build 0)  -->
<!DOCTYPE svg PUBLIC "-//W3C//DTD SVG 1.1//EN" "http://www.w3.org/Graphics/SVG/1.1/DTD/svg11.dtd">
<svg version="1.1" id="Layer_1" xmlns="http://www.w3.org/2000/svg" xmlns:xlink="http://www.w3.org/1999/xlink" x="0px" y="0px"
	 width="384.054px" height="384.054px" viewBox="0 0 384.054 384.054" enable-background="new 0 0 384.054 384.054"
	 xml:space="preserve">
<path fill-rule="evenodd" clip-rule="evenodd" d="M372.803,384.054c-2.251,0-4.501,0-6.752,0c-3.481-2.527-7.374-4.643-10.384-7.644
	c-53.626-53.461-107.146-107.029-160.691-160.57c-0.94-0.939-1.94-1.822-3.281-3.076c-1.182,1.359-2.097,2.552-3.15,3.605
	C135.187,269.746,81.841,323.135,28.39,376.417c-3.009,3-6.904,5.112-10.387,7.637c-2.25,0-4.5,0-6.75,0
	C5.878,381.927,2.141,378.162,0,372.803c0-2.251,0-4.501,0-6.751c2.53-3.481,4.649-7.371,7.65-10.382
	c53.373-53.54,106.848-106.979,160.344-160.396c1.029-1.027,2.564-1.548,3.865-2.305c-1.826-2.548-3.096-3.383-4.149-4.436
	C114.325,135.182,60.936,81.834,7.652,28.382C4.65,25.372,2.53,21.483,0,18.002c0-2.25,0-4.5,0-6.751
	C2.128,5.878,5.874,2.124,11.252,0c2.25,0,4.5,0,6.75,0c3.485,2.526,7.382,4.639,10.393,7.641
	C81.935,61.01,135.371,114.482,188.787,167.975c1.029,1.031,1.553,2.566,2.313,3.865c0.541-0.21,1.081-0.421,1.622-0.631
	c0.754-0.999,1.4-2.103,2.276-2.979C248.521,114.669,302.042,61.104,355.667,7.643c3.01-3,6.902-5.116,10.384-7.643
	c2.251,0,4.501,0,6.752,0c5.374,2.127,9.111,5.89,11.251,11.251c0,2.25,0,4.501,0,6.751c-2.612,3.571-4.812,7.555-7.899,10.652
	c-53.28,53.451-106.665,106.796-160.069,160.123c-1.029,1.028-2.569,1.543-4.474,2.647c2.418,2.047,3.534,2.861,4.499,3.826
	c53.465,53.442,106.94,106.874,160.31,160.412c3,3.009,5.109,6.905,7.634,10.39c0,2.25,0,4.5,0,6.751
	C381.918,378.168,378.163,381.913,372.803,384.054z"/>
</svg>
