<?xml version="1.0" encoding="utf-8"?>
<!-- Generator: Adobe Illustrator 24.3.0, SVG Export Plug-In . SVG Version: 6.00 Build 0)  -->
<svg version="1.1" id="Layer_1" xmlns="http://www.w3.org/2000/svg" xmlns:xlink="http://www.w3.org/1999/xlink" x="0px" y="0px"
	 viewBox="0 0 383.24 264.2" style="enable-background:new 0 0 383.24 264.2;" xml:space="preserve">
<path d="M0,9.1C2.91,2.25,8.1-0.01,15.43,0c117.64,0.14,235.28,0.1,352.91,0.1c9.33,0,14.89,4.48,14.89,11.99
	c0,7.52-5.55,12.01-14.87,12.01c-117.64,0-235.28-0.04-352.91,0.1C8.1,24.21,2.94,21.92,0,15.1C0,13.1,0,11.1,0,9.1z"/>
<path d="M0,129.1c2.91-6.85,8.1-9.11,15.43-9.1c117.64,0.14,235.28,0.1,352.91,0.1c9.33,0,14.89,4.48,14.89,11.99
	c0,7.52-5.55,12.01-14.87,12.01c-117.64,0-235.28-0.04-352.91,0.1C8.1,144.21,2.94,141.92,0,135.1C0,133.1,0,131.1,0,129.1z"/>
<path d="M0,249.1c2.91-6.85,8.1-9.11,15.43-9.1c117.64,0.14,235.28,0.1,352.91,0.1c9.33,0,14.89,4.48,14.89,11.99
	c0,7.52-5.55,12.01-14.87,12.01c-117.64,0-235.28-0.04-352.91,0.1C8.1,264.21,2.94,261.92,0,255.1C0,253.1,0,251.1,0,249.1z"/>
</svg>
