<?xml version="1.0" encoding="utf-8"?>
<!-- Generator: Adobe Illustrator 26.0.0, SVG Export Plug-In . SVG Version: 6.00 Build 0)  -->
<svg version="1.1" id="Layer_1" xmlns="http://www.w3.org/2000/svg" xmlns:xlink="http://www.w3.org/1999/xlink" x="0px" y="0px"
	 viewBox="0 0 383.2 264.2" style="enable-background:new 0 0 383.2 264.2;" xml:space="preserve">
<style type="text/css">
	.st0{fill:#FFFFFF;}
</style>
<path class="st0" d="M0,9.1C2.9,2.2,8.1,0,15.4,0c117.6,0.1,235.3,0.1,352.9,0.1c9.3,0,14.9,4.5,14.9,12c0,7.5-5.5,12-14.9,12
	c-117.6,0-235.3,0-352.9,0.1c-7.4,0-12.5-2.3-15.5-9.1C0,13.1,0,11.1,0,9.1z"/>
<path class="st0" d="M0,129.1c2.9-6.8,8.1-9.1,15.4-9.1c117.6,0.1,235.3,0.1,352.9,0.1c9.3,0,14.9,4.5,14.9,12c0,7.5-5.5,12-14.9,12
	c-117.6,0-235.3,0-352.9,0.1c-7.4,0-12.5-2.3-15.5-9.1C0,133.1,0,131.1,0,129.1z"/>
<path class="st0" d="M0,249.1c2.9-6.9,8.1-9.1,15.4-9.1c117.6,0.1,235.3,0.1,352.9,0.1c9.3,0,14.9,4.5,14.9,12c0,7.5-5.5,12-14.9,12
	c-117.6,0-235.3,0-352.9,0.1c-7.4,0-12.5-2.3-15.5-9.1C0,253.1,0,251.1,0,249.1z"/>
</svg>
